<mxfile host="app.diagrams.net" modified="2020-05-13T21:17:45.137Z" agent="5.0 (X11)" etag="dVPkcD1_D8HeYQHSTi2n" version="13.1.1" type="github">
  <diagram id="M4kqrXDeOSyIxsi7BbFb" name="Page-1">
    <mxGraphModel dx="1422" dy="794" grid="1" gridSize="10" guides="1" tooltips="1" connect="1" arrows="1" fold="1" page="1" pageScale="1" pageWidth="1100" pageHeight="850" math="0" shadow="0">
      <root>
        <mxCell id="0" />
        <mxCell id="1" parent="0" />
        <mxCell id="AH9gWRwFGIXPPmOfZCHg-1" value="" style="rounded=0;whiteSpace=wrap;html=1;labelBackgroundColor=none;fillColor=#eeeeee;strokeColor=#36393d;" vertex="1" parent="1">
          <mxGeometry x="470" y="486" width="300" height="119" as="geometry" />
        </mxCell>
        <mxCell id="AH9gWRwFGIXPPmOfZCHg-39" value="" style="group" vertex="1" connectable="0" parent="1">
          <mxGeometry x="30" y="100" width="740" height="450" as="geometry" />
        </mxCell>
        <mxCell id="AH9gWRwFGIXPPmOfZCHg-40" value="" style="rounded=0;whiteSpace=wrap;html=1;labelBackgroundColor=none;fillColor=#f5f5f5;strokeColor=#666666;fontColor=#333333;" vertex="1" parent="AH9gWRwFGIXPPmOfZCHg-39">
          <mxGeometry x="30" y="31" width="350" height="360" as="geometry" />
        </mxCell>
        <mxCell id="AH9gWRwFGIXPPmOfZCHg-41" value="" style="group" vertex="1" connectable="0" parent="AH9gWRwFGIXPPmOfZCHg-39">
          <mxGeometry x="440" width="300" height="330" as="geometry" />
        </mxCell>
        <mxCell id="AH9gWRwFGIXPPmOfZCHg-42" value="" style="group" vertex="1" connectable="0" parent="AH9gWRwFGIXPPmOfZCHg-41">
          <mxGeometry width="300" height="330" as="geometry" />
        </mxCell>
        <mxCell id="AH9gWRwFGIXPPmOfZCHg-43" value="" style="group" vertex="1" connectable="0" parent="AH9gWRwFGIXPPmOfZCHg-42">
          <mxGeometry y="30" width="300" height="300" as="geometry" />
        </mxCell>
        <mxCell id="AH9gWRwFGIXPPmOfZCHg-44" value="" style="rounded=0;whiteSpace=wrap;html=1;labelBackgroundColor=none;fillColor=#f5f5f5;strokeColor=#666666;fontColor=#333333;" vertex="1" parent="AH9gWRwFGIXPPmOfZCHg-43">
          <mxGeometry width="300" height="300" as="geometry" />
        </mxCell>
        <mxCell id="AH9gWRwFGIXPPmOfZCHg-45" value="" style="group" vertex="1" connectable="0" parent="AH9gWRwFGIXPPmOfZCHg-43">
          <mxGeometry x="10" y="10" width="290" height="290" as="geometry" />
        </mxCell>
        <mxCell id="AH9gWRwFGIXPPmOfZCHg-46" value="" style="group" vertex="1" connectable="0" parent="AH9gWRwFGIXPPmOfZCHg-45">
          <mxGeometry x="80" width="110" height="110" as="geometry" />
        </mxCell>
        <mxCell id="AH9gWRwFGIXPPmOfZCHg-47" value="" style="group;fillColor=#f8cecc;labelBackgroundColor=none;strokeColor=#b85450;" vertex="1" connectable="0" parent="AH9gWRwFGIXPPmOfZCHg-46">
          <mxGeometry width="110" height="110" as="geometry" />
        </mxCell>
        <mxCell id="AH9gWRwFGIXPPmOfZCHg-48" value="" style="whiteSpace=wrap;html=1;aspect=fixed;fillColor=#f8cecc;strokeColor=#b85450;" vertex="1" parent="AH9gWRwFGIXPPmOfZCHg-47">
          <mxGeometry width="110" height="110" as="geometry" />
        </mxCell>
        <mxCell id="AH9gWRwFGIXPPmOfZCHg-49" value="&lt;div style=&quot;font-size: 16px&quot;&gt;&lt;font style=&quot;font-size: 16px&quot;&gt;&lt;b&gt;Load&lt;/b&gt;&lt;/font&gt;&lt;/div&gt;&lt;div style=&quot;font-size: 16px&quot;&gt;&lt;font style=&quot;font-size: 16px&quot;&gt;&lt;b&gt;Balance&lt;br&gt;&lt;/b&gt;&lt;/font&gt;&lt;/div&gt;" style="shape=image;html=1;verticalAlign=top;verticalLabelPosition=bottom;labelBackgroundColor=none;imageAspect=0;aspect=fixed;image=https://cdn0.iconfinder.com/data/icons/zondicons/20/load-balancer-128.png;fillColor=none;" vertex="1" parent="AH9gWRwFGIXPPmOfZCHg-47">
          <mxGeometry x="35" y="10" width="40" height="40" as="geometry" />
        </mxCell>
        <mxCell id="AH9gWRwFGIXPPmOfZCHg-50" style="edgeStyle=orthogonalEdgeStyle;rounded=0;orthogonalLoop=1;jettySize=auto;html=1;exitX=0.5;exitY=1;exitDx=0;exitDy=0;strokeWidth=2;" edge="1" parent="AH9gWRwFGIXPPmOfZCHg-47" source="AH9gWRwFGIXPPmOfZCHg-49" target="AH9gWRwFGIXPPmOfZCHg-49">
          <mxGeometry relative="1" as="geometry" />
        </mxCell>
        <mxCell id="AH9gWRwFGIXPPmOfZCHg-51" value="" style="group" vertex="1" connectable="0" parent="AH9gWRwFGIXPPmOfZCHg-45">
          <mxGeometry y="150" width="290" height="140" as="geometry" />
        </mxCell>
        <mxCell id="AH9gWRwFGIXPPmOfZCHg-52" value="" style="group" vertex="1" connectable="0" parent="AH9gWRwFGIXPPmOfZCHg-51">
          <mxGeometry width="290" height="140" as="geometry" />
        </mxCell>
        <mxCell id="AH9gWRwFGIXPPmOfZCHg-53" value="" style="whiteSpace=wrap;html=1;aspect=fixed;fillColor=#dae8fc;strokeColor=#6c8ebf;" vertex="1" parent="AH9gWRwFGIXPPmOfZCHg-52">
          <mxGeometry x="20" width="110" height="110" as="geometry" />
        </mxCell>
        <mxCell id="AH9gWRwFGIXPPmOfZCHg-54" value="" style="whiteSpace=wrap;html=1;aspect=fixed;fillColor=#dae8fc;strokeColor=#6c8ebf;" vertex="1" parent="AH9gWRwFGIXPPmOfZCHg-52">
          <mxGeometry x="10" y="10" width="110" height="110" as="geometry" />
        </mxCell>
        <mxCell id="AH9gWRwFGIXPPmOfZCHg-55" value="" style="group;fillColor=none;labelBackgroundColor=none;" vertex="1" connectable="0" parent="AH9gWRwFGIXPPmOfZCHg-52">
          <mxGeometry y="20" width="290" height="120" as="geometry" />
        </mxCell>
        <mxCell id="AH9gWRwFGIXPPmOfZCHg-56" value="" style="whiteSpace=wrap;html=1;aspect=fixed;fillColor=#dae8fc;strokeColor=#6c8ebf;" vertex="1" parent="AH9gWRwFGIXPPmOfZCHg-55">
          <mxGeometry width="110" height="110" as="geometry" />
        </mxCell>
        <mxCell id="AH9gWRwFGIXPPmOfZCHg-57" value="&lt;div&gt;&lt;font style=&quot;font-size: 16px&quot;&gt;&lt;b&gt;Flask&lt;/b&gt;&lt;/font&gt;&lt;/div&gt;&lt;div&gt;&lt;font style=&quot;font-size: 16px&quot;&gt;&lt;b&gt;WSGI&lt;/b&gt;&lt;/font&gt;&lt;/div&gt;" style="shape=image;html=1;verticalAlign=top;verticalLabelPosition=bottom;labelBackgroundColor=none;imageAspect=0;aspect=fixed;image=https://cdn4.iconfinder.com/data/icons/logos-brands-5/24/flask-128.png" vertex="1" parent="AH9gWRwFGIXPPmOfZCHg-55">
          <mxGeometry x="30" y="10" width="50" height="50" as="geometry" />
        </mxCell>
        <mxCell id="AH9gWRwFGIXPPmOfZCHg-58" value="" style="group" vertex="1" connectable="0" parent="AH9gWRwFGIXPPmOfZCHg-51">
          <mxGeometry x="150" y="20" width="130" height="110" as="geometry" />
        </mxCell>
        <mxCell id="AH9gWRwFGIXPPmOfZCHg-59" value="" style="group" vertex="1" connectable="0" parent="AH9gWRwFGIXPPmOfZCHg-58">
          <mxGeometry width="130" height="110" as="geometry" />
        </mxCell>
        <mxCell id="AH9gWRwFGIXPPmOfZCHg-60" value="" style="whiteSpace=wrap;html=1;aspect=fixed;fillColor=#fff2cc;strokeColor=#d6b656;" vertex="1" parent="AH9gWRwFGIXPPmOfZCHg-59">
          <mxGeometry x="20" y="-20" width="110" height="110" as="geometry" />
        </mxCell>
        <mxCell id="AH9gWRwFGIXPPmOfZCHg-61" value="" style="whiteSpace=wrap;html=1;aspect=fixed;fillColor=#fff2cc;strokeColor=#d6b656;" vertex="1" parent="AH9gWRwFGIXPPmOfZCHg-59">
          <mxGeometry x="10" y="-10" width="110" height="110" as="geometry" />
        </mxCell>
        <mxCell id="AH9gWRwFGIXPPmOfZCHg-62" value="" style="whiteSpace=wrap;html=1;aspect=fixed;fillColor=#fff2cc;strokeColor=#d6b656;" vertex="1" parent="AH9gWRwFGIXPPmOfZCHg-59">
          <mxGeometry width="110" height="110" as="geometry" />
        </mxCell>
        <mxCell id="AH9gWRwFGIXPPmOfZCHg-63" value="&lt;font style=&quot;font-size: 16px&quot;&gt;&lt;b&gt;MongoDB&lt;/b&gt;&lt;/font&gt;" style="html=1;verticalLabelPosition=bottom;align=center;labelBackgroundColor=none;verticalAlign=top;strokeWidth=2;strokeColor=#0080F0;shadow=0;dashed=0;shape=mxgraph.ios7.icons.data;" vertex="1" parent="AH9gWRwFGIXPPmOfZCHg-59">
          <mxGeometry x="42.629999999999995" y="20" width="24.74" height="30" as="geometry" />
        </mxCell>
        <mxCell id="AH9gWRwFGIXPPmOfZCHg-64" style="edgeStyle=orthogonalEdgeStyle;rounded=0;orthogonalLoop=1;jettySize=auto;html=1;exitX=0.5;exitY=1;exitDx=0;exitDy=0;entryX=0.75;entryY=0;entryDx=0;entryDy=0;strokeWidth=2;" edge="1" parent="AH9gWRwFGIXPPmOfZCHg-45" source="AH9gWRwFGIXPPmOfZCHg-48" target="AH9gWRwFGIXPPmOfZCHg-56">
          <mxGeometry relative="1" as="geometry" />
        </mxCell>
        <mxCell id="AH9gWRwFGIXPPmOfZCHg-65" style="edgeStyle=orthogonalEdgeStyle;rounded=0;orthogonalLoop=1;jettySize=auto;html=1;exitX=0.5;exitY=1;exitDx=0;exitDy=0;entryX=0.5;entryY=0;entryDx=0;entryDy=0;strokeWidth=2;" edge="1" parent="AH9gWRwFGIXPPmOfZCHg-45" source="AH9gWRwFGIXPPmOfZCHg-48" target="AH9gWRwFGIXPPmOfZCHg-54">
          <mxGeometry relative="1" as="geometry" />
        </mxCell>
        <mxCell id="AH9gWRwFGIXPPmOfZCHg-66" style="edgeStyle=orthogonalEdgeStyle;rounded=0;orthogonalLoop=1;jettySize=auto;html=1;exitX=0.5;exitY=1;exitDx=0;exitDy=0;entryX=0.25;entryY=0;entryDx=0;entryDy=0;strokeWidth=2;" edge="1" parent="AH9gWRwFGIXPPmOfZCHg-45" source="AH9gWRwFGIXPPmOfZCHg-48" target="AH9gWRwFGIXPPmOfZCHg-53">
          <mxGeometry relative="1" as="geometry" />
        </mxCell>
        <mxCell id="AH9gWRwFGIXPPmOfZCHg-67" style="edgeStyle=orthogonalEdgeStyle;rounded=0;orthogonalLoop=1;jettySize=auto;html=1;exitX=0.5;exitY=1;exitDx=0;exitDy=0;entryX=0.25;entryY=0;entryDx=0;entryDy=0;strokeWidth=2;" edge="1" parent="AH9gWRwFGIXPPmOfZCHg-45" source="AH9gWRwFGIXPPmOfZCHg-48" target="AH9gWRwFGIXPPmOfZCHg-62">
          <mxGeometry relative="1" as="geometry" />
        </mxCell>
        <mxCell id="AH9gWRwFGIXPPmOfZCHg-68" style="edgeStyle=orthogonalEdgeStyle;rounded=0;orthogonalLoop=1;jettySize=auto;html=1;exitX=0.5;exitY=1;exitDx=0;exitDy=0;entryX=0.5;entryY=0;entryDx=0;entryDy=0;strokeWidth=2;" edge="1" parent="AH9gWRwFGIXPPmOfZCHg-45" source="AH9gWRwFGIXPPmOfZCHg-48" target="AH9gWRwFGIXPPmOfZCHg-61">
          <mxGeometry relative="1" as="geometry" />
        </mxCell>
        <mxCell id="AH9gWRwFGIXPPmOfZCHg-69" style="edgeStyle=orthogonalEdgeStyle;rounded=0;orthogonalLoop=1;jettySize=auto;html=1;exitX=0.5;exitY=1;exitDx=0;exitDy=0;entryX=0.75;entryY=0;entryDx=0;entryDy=0;strokeWidth=2;" edge="1" parent="AH9gWRwFGIXPPmOfZCHg-45" source="AH9gWRwFGIXPPmOfZCHg-48" target="AH9gWRwFGIXPPmOfZCHg-60">
          <mxGeometry relative="1" as="geometry" />
        </mxCell>
        <mxCell id="AH9gWRwFGIXPPmOfZCHg-70" style="edgeStyle=orthogonalEdgeStyle;rounded=0;orthogonalLoop=1;jettySize=auto;html=1;exitX=0.5;exitY=1;exitDx=0;exitDy=0;strokeWidth=2;" edge="1" parent="AH9gWRwFGIXPPmOfZCHg-43" source="AH9gWRwFGIXPPmOfZCHg-44" target="AH9gWRwFGIXPPmOfZCHg-44">
          <mxGeometry relative="1" as="geometry" />
        </mxCell>
        <mxCell id="AH9gWRwFGIXPPmOfZCHg-71" value="&lt;font style=&quot;font-size: 16px&quot;&gt;&lt;i&gt;&lt;b&gt;ERGO Application API&lt;br&gt;&lt;/b&gt;&lt;/i&gt;&lt;/font&gt;" style="rounded=0;whiteSpace=wrap;html=1;labelBackgroundColor=none;fillColor=#f5f5f5;strokeColor=#666666;fontColor=#333333;" vertex="1" parent="AH9gWRwFGIXPPmOfZCHg-42">
          <mxGeometry width="210" height="30" as="geometry" />
        </mxCell>
        <mxCell id="AH9gWRwFGIXPPmOfZCHg-72" value="" style="group" vertex="1" connectable="0" parent="AH9gWRwFGIXPPmOfZCHg-39">
          <mxGeometry x="50" y="41" width="248" height="360" as="geometry" />
        </mxCell>
        <mxCell id="AH9gWRwFGIXPPmOfZCHg-73" value="&lt;div style=&quot;font-size: 16px&quot;&gt;&lt;font style=&quot;font-size: 16px&quot;&gt;&lt;b&gt;IoT API&lt;/b&gt;&lt;/font&gt;&lt;/div&gt;&lt;div style=&quot;font-size: 16px&quot;&gt;&lt;font style=&quot;font-size: 16px&quot;&gt;&lt;b&gt;Gateway&lt;/b&gt;&lt;/font&gt;&lt;/div&gt;" style="outlineConnect=0;fontColor=#232F3E;gradientColor=#F54749;gradientDirection=north;fillColor=#C7131F;strokeColor=#ffffff;dashed=0;verticalLabelPosition=bottom;verticalAlign=top;align=center;html=1;fontSize=12;fontStyle=0;aspect=fixed;shape=mxgraph.aws4.resourceIcon;resIcon=mxgraph.aws4.api_gateway;" vertex="1" parent="AH9gWRwFGIXPPmOfZCHg-72">
          <mxGeometry x="170" y="40" width="78" height="78" as="geometry" />
        </mxCell>
        <mxCell id="AH9gWRwFGIXPPmOfZCHg-74" value="" style="group" vertex="1" connectable="0" parent="AH9gWRwFGIXPPmOfZCHg-72">
          <mxGeometry width="60" height="360" as="geometry" />
        </mxCell>
        <mxCell id="AH9gWRwFGIXPPmOfZCHg-75" value="&lt;font style=&quot;font-size: 16px&quot;&gt;&lt;b&gt;S1&lt;/b&gt;&lt;/font&gt;" style="outlineConnect=0;dashed=0;verticalLabelPosition=bottom;verticalAlign=top;align=center;html=1;shape=mxgraph.aws3.utility;fillColor=#5294CF;gradientColor=none;" vertex="1" parent="AH9gWRwFGIXPPmOfZCHg-74">
          <mxGeometry width="60" height="60" as="geometry" />
        </mxCell>
        <mxCell id="AH9gWRwFGIXPPmOfZCHg-76" value="&lt;font style=&quot;font-size: 16px&quot;&gt;&lt;b&gt;S2&lt;/b&gt;&lt;/font&gt;" style="outlineConnect=0;dashed=0;verticalLabelPosition=bottom;verticalAlign=top;align=center;html=1;shape=mxgraph.aws3.windfarm;fillColor=#5294CF;gradientColor=none;" vertex="1" parent="AH9gWRwFGIXPPmOfZCHg-74">
          <mxGeometry y="100" width="60" height="60" as="geometry" />
        </mxCell>
        <mxCell id="AH9gWRwFGIXPPmOfZCHg-77" style="edgeStyle=orthogonalEdgeStyle;rounded=0;orthogonalLoop=1;jettySize=auto;html=1;strokeWidth=2;dashed=1;" edge="1" parent="AH9gWRwFGIXPPmOfZCHg-72" source="AH9gWRwFGIXPPmOfZCHg-75" target="AH9gWRwFGIXPPmOfZCHg-73">
          <mxGeometry relative="1" as="geometry" />
        </mxCell>
        <mxCell id="AH9gWRwFGIXPPmOfZCHg-78" style="edgeStyle=orthogonalEdgeStyle;rounded=0;orthogonalLoop=1;jettySize=auto;html=1;exitX=1;exitY=0.5;exitDx=0;exitDy=0;exitPerimeter=0;strokeWidth=2;dashed=1;" edge="1" parent="AH9gWRwFGIXPPmOfZCHg-72" source="AH9gWRwFGIXPPmOfZCHg-76" target="AH9gWRwFGIXPPmOfZCHg-73">
          <mxGeometry relative="1" as="geometry" />
        </mxCell>
        <mxCell id="AH9gWRwFGIXPPmOfZCHg-79" value="&lt;font style=&quot;font-size: 16px&quot;&gt;&lt;i&gt;&lt;b&gt;In-Field Devices&lt;br&gt;&lt;/b&gt;&lt;/i&gt;&lt;/font&gt;" style="rounded=0;whiteSpace=wrap;html=1;labelBackgroundColor=none;fillColor=#f5f5f5;strokeColor=#666666;fontColor=#333333;" vertex="1" parent="AH9gWRwFGIXPPmOfZCHg-39">
          <mxGeometry x="30" y="1" width="150" height="30" as="geometry" />
        </mxCell>
        <mxCell id="AH9gWRwFGIXPPmOfZCHg-80" style="edgeStyle=orthogonalEdgeStyle;rounded=0;orthogonalLoop=1;jettySize=auto;html=1;entryX=0.005;entryY=0.63;entryDx=0;entryDy=0;entryPerimeter=0;strokeColor=#000000;strokeWidth=2;dashed=1;dashPattern=1 1;" edge="1" parent="AH9gWRwFGIXPPmOfZCHg-39" source="AH9gWRwFGIXPPmOfZCHg-81" target="AH9gWRwFGIXPPmOfZCHg-84">
          <mxGeometry relative="1" as="geometry">
            <Array as="points">
              <mxPoint x="320" y="231" />
              <mxPoint x="320" y="125" />
            </Array>
          </mxGeometry>
        </mxCell>
        <mxCell id="AH9gWRwFGIXPPmOfZCHg-81" value="&lt;font style=&quot;font-size: 16px&quot;&gt;&lt;b&gt;S3&lt;/b&gt;&lt;/font&gt;" style="outlineConnect=0;dashed=0;verticalLabelPosition=bottom;verticalAlign=top;align=center;html=1;shape=mxgraph.aws3.lightbulb;fillColor=#5294CF;gradientColor=none;" vertex="1" parent="AH9gWRwFGIXPPmOfZCHg-39">
          <mxGeometry x="144" y="201" width="60" height="60" as="geometry" />
        </mxCell>
        <mxCell id="AH9gWRwFGIXPPmOfZCHg-82" style="edgeStyle=orthogonalEdgeStyle;rounded=0;orthogonalLoop=1;jettySize=auto;html=1;strokeColor=#000000;strokeWidth=2;dashed=1;dashPattern=1 2;endArrow=none;endFill=0;" edge="1" parent="AH9gWRwFGIXPPmOfZCHg-39" source="AH9gWRwFGIXPPmOfZCHg-83">
          <mxGeometry relative="1" as="geometry">
            <Array as="points">
              <mxPoint x="350" y="331" />
              <mxPoint x="350" y="125" />
            </Array>
            <mxPoint x="350" y="125" as="targetPoint" />
          </mxGeometry>
        </mxCell>
        <mxCell id="AH9gWRwFGIXPPmOfZCHg-83" value="&lt;font style=&quot;font-size: 16px&quot;&gt;&lt;b&gt;S4&lt;/b&gt;&lt;/font&gt;" style="outlineConnect=0;dashed=0;verticalLabelPosition=bottom;verticalAlign=top;align=center;html=1;shape=mxgraph.aws3.thermostat;fillColor=#5294CF;gradientColor=none;" vertex="1" parent="AH9gWRwFGIXPPmOfZCHg-39">
          <mxGeometry x="144" y="301" width="60" height="60" as="geometry" />
        </mxCell>
        <mxCell id="AH9gWRwFGIXPPmOfZCHg-84" value="" style="html=1;dashed=0;whitespace=wrap;fillColor=#2875E2;strokeColor=#ffffff;points=[[0.005,0.63,0],[0.1,0.2,0],[0.9,0.2,0],[0.5,0,0],[0.995,0.63,0],[0.72,0.99,0],[0.5,1,0],[0.28,0.99,0]];shape=mxgraph.kubernetes.icon;prIcon=api;labelBackgroundColor=none;" vertex="1" parent="AH9gWRwFGIXPPmOfZCHg-39">
          <mxGeometry x="397.08" y="81" width="72.92" height="70" as="geometry" />
        </mxCell>
        <mxCell id="AH9gWRwFGIXPPmOfZCHg-85" value="&lt;font style=&quot;font-size: 16px&quot;&gt;&lt;i&gt;&lt;b&gt;Operations API&lt;br&gt;&lt;/b&gt;&lt;/i&gt;&lt;/font&gt;" style="rounded=0;whiteSpace=wrap;html=1;labelBackgroundColor=none;fillColor=#f5f5f5;strokeColor=#666666;fontColor=#333333;" vertex="1" parent="AH9gWRwFGIXPPmOfZCHg-39">
          <mxGeometry x="440" y="356" width="150" height="30" as="geometry" />
        </mxCell>
        <mxCell id="AH9gWRwFGIXPPmOfZCHg-86" style="edgeStyle=orthogonalEdgeStyle;rounded=0;orthogonalLoop=1;jettySize=auto;html=1;entryX=0.005;entryY=0.63;entryDx=0;entryDy=0;entryPerimeter=0;strokeColor=#000000;strokeWidth=2;dashed=1;dashPattern=1 1;" edge="1" parent="AH9gWRwFGIXPPmOfZCHg-39" source="AH9gWRwFGIXPPmOfZCHg-73" target="AH9gWRwFGIXPPmOfZCHg-84">
          <mxGeometry relative="1" as="geometry">
            <Array as="points">
              <mxPoint x="330" y="125" />
              <mxPoint x="330" y="125" />
            </Array>
          </mxGeometry>
        </mxCell>
        <mxCell id="AH9gWRwFGIXPPmOfZCHg-89" style="edgeStyle=orthogonalEdgeStyle;rounded=0;orthogonalLoop=1;jettySize=auto;html=1;strokeColor=#000000;strokeWidth=2;" edge="1" parent="1" source="AH9gWRwFGIXPPmOfZCHg-90" target="AH9gWRwFGIXPPmOfZCHg-93">
          <mxGeometry relative="1" as="geometry" />
        </mxCell>
        <mxCell id="AH9gWRwFGIXPPmOfZCHg-90" value="&lt;div style=&quot;font-size: 16px&quot;&gt;&lt;b&gt;&lt;font style=&quot;font-size: 16px&quot;&gt;Admin&lt;/font&gt;&lt;/b&gt;&lt;/div&gt;" style="pointerEvents=1;shadow=0;dashed=0;html=1;strokeColor=none;labelPosition=center;verticalLabelPosition=bottom;verticalAlign=top;align=center;fillColor=#515151;shape=mxgraph.mscae.system_center.admin_console;labelBackgroundColor=none;" vertex="1" parent="1">
          <mxGeometry x="491" y="519" width="50" height="36" as="geometry" />
        </mxCell>
        <mxCell id="AH9gWRwFGIXPPmOfZCHg-91" value="&lt;font style=&quot;font-size: 16px&quot;&gt;&lt;b&gt;Deployments&lt;/b&gt;&lt;/font&gt;" style="text;html=1;align=center;verticalAlign=middle;resizable=0;points=[];autosize=1;" vertex="1" parent="1">
          <mxGeometry x="560" y="572" width="130" height="20" as="geometry" />
        </mxCell>
        <mxCell id="AH9gWRwFGIXPPmOfZCHg-93" value="" style="html=1;aspect=fixed;strokeColor=none;shadow=0;align=center;verticalAlign=top;fillColor=#3B8DF1;shape=mxgraph.gcp2.admin_connected;labelBackgroundColor=none;" vertex="1" parent="1">
          <mxGeometry x="623" y="502" width="70" height="70" as="geometry" />
        </mxCell>
        <mxCell id="AH9gWRwFGIXPPmOfZCHg-94" value="" style="group" vertex="1" connectable="0" parent="1">
          <mxGeometry x="20" y="525" width="229" height="80" as="geometry" />
        </mxCell>
        <mxCell id="AH9gWRwFGIXPPmOfZCHg-95" value="" style="rounded=0;whiteSpace=wrap;html=1;align=left;" vertex="1" parent="AH9gWRwFGIXPPmOfZCHg-94">
          <mxGeometry y="3" width="220" height="80" as="geometry" />
        </mxCell>
        <mxCell id="AH9gWRwFGIXPPmOfZCHg-96" value="" style="endArrow=none;html=1;dashed=1;dashPattern=1 1;strokeWidth=2;" edge="1" parent="AH9gWRwFGIXPPmOfZCHg-94">
          <mxGeometry width="50" height="50" relative="1" as="geometry">
            <mxPoint x="10" y="16.5" as="sourcePoint" />
            <mxPoint x="50" y="16.5" as="targetPoint" />
          </mxGeometry>
        </mxCell>
        <mxCell id="AH9gWRwFGIXPPmOfZCHg-97" value="" style="endArrow=none;html=1;dashed=1;strokeWidth=2;" edge="1" parent="AH9gWRwFGIXPPmOfZCHg-94">
          <mxGeometry width="50" height="50" relative="1" as="geometry">
            <mxPoint x="10" y="43.5" as="sourcePoint" />
            <mxPoint x="50" y="43.5" as="targetPoint" />
          </mxGeometry>
        </mxCell>
        <mxCell id="AH9gWRwFGIXPPmOfZCHg-98" value="" style="endArrow=none;html=1;strokeWidth=2;" edge="1" parent="AH9gWRwFGIXPPmOfZCHg-94">
          <mxGeometry width="50" height="50" relative="1" as="geometry">
            <mxPoint x="10" y="69.5" as="sourcePoint" />
            <mxPoint x="50" y="69.5" as="targetPoint" />
          </mxGeometry>
        </mxCell>
        <mxCell id="AH9gWRwFGIXPPmOfZCHg-99" value="&lt;font style=&quot;font-size: 16px&quot;&gt;&lt;b&gt;K8s API&lt;br&gt;&lt;/b&gt;&lt;/font&gt;" style="text;html=1;align=left;verticalAlign=middle;resizable=0;points=[];autosize=1;" vertex="1" parent="AH9gWRwFGIXPPmOfZCHg-94">
          <mxGeometry x="59" y="60" width="90" height="20" as="geometry" />
        </mxCell>
        <mxCell id="AH9gWRwFGIXPPmOfZCHg-100" value="&lt;font style=&quot;font-size: 16px&quot;&gt;&lt;b&gt;ERGO REST API&lt;br&gt;&lt;/b&gt;&lt;/font&gt;" style="text;html=1;align=left;verticalAlign=middle;resizable=0;points=[];autosize=1;" vertex="1" parent="AH9gWRwFGIXPPmOfZCHg-94">
          <mxGeometry x="59" y="7" width="160" height="20" as="geometry" />
        </mxCell>
        <mxCell id="AH9gWRwFGIXPPmOfZCHg-101" value="&lt;font style=&quot;font-size: 16px&quot;&gt;&lt;b&gt;Device Protocols&lt;br&gt;&lt;/b&gt;&lt;/font&gt;" style="text;html=1;align=left;verticalAlign=middle;resizable=0;points=[];autosize=1;" vertex="1" parent="AH9gWRwFGIXPPmOfZCHg-94">
          <mxGeometry x="59" y="34" width="170" height="20" as="geometry" />
        </mxCell>
        <mxCell id="AH9gWRwFGIXPPmOfZCHg-3" value="" style="group" vertex="1" connectable="0" parent="1">
          <mxGeometry x="770.5" y="90" width="310" height="552" as="geometry" />
        </mxCell>
        <mxCell id="AH9gWRwFGIXPPmOfZCHg-4" value="" style="rounded=0;whiteSpace=wrap;html=1;labelBackgroundColor=none;fillColor=#f5f5f5;strokeColor=#666666;fontColor=#333333;" vertex="1" parent="AH9gWRwFGIXPPmOfZCHg-3">
          <mxGeometry x="30" y="30" width="250" height="500" as="geometry" />
        </mxCell>
        <mxCell id="AH9gWRwFGIXPPmOfZCHg-5" value="" style="rounded=1;whiteSpace=wrap;html=1;gradientColor=#b3b3b3;fillColor=#f5f5f5;strokeColor=#666666;" vertex="1" parent="AH9gWRwFGIXPPmOfZCHg-3">
          <mxGeometry x="60" y="40" width="210" height="245" as="geometry" />
        </mxCell>
        <mxCell id="AH9gWRwFGIXPPmOfZCHg-6" value="&lt;i&gt;&lt;b&gt;&lt;font style=&quot;font-size: 16px&quot;&gt;Node N&lt;br&gt;&lt;/font&gt;&lt;/b&gt;&lt;/i&gt;" style="text;html=1;align=center;verticalAlign=middle;resizable=0;points=[];autosize=1;" vertex="1" parent="AH9gWRwFGIXPPmOfZCHg-3">
          <mxGeometry x="70" y="42" width="80" height="20" as="geometry" />
        </mxCell>
        <mxCell id="AH9gWRwFGIXPPmOfZCHg-7" value="" style="rounded=1;whiteSpace=wrap;html=1;gradientColor=#b3b3b3;fillColor=#f5f5f5;strokeColor=#666666;" vertex="1" parent="AH9gWRwFGIXPPmOfZCHg-3">
          <mxGeometry x="50" y="60" width="210" height="251" as="geometry" />
        </mxCell>
        <mxCell id="AH9gWRwFGIXPPmOfZCHg-8" value="&lt;i&gt;&lt;b&gt;&lt;font style=&quot;font-size: 16px&quot;&gt;Node 2&lt;br&gt;&lt;/font&gt;&lt;/b&gt;&lt;/i&gt;" style="text;html=1;align=center;verticalAlign=middle;resizable=0;points=[];autosize=1;" vertex="1" parent="AH9gWRwFGIXPPmOfZCHg-3">
          <mxGeometry x="60" y="61" width="80" height="20" as="geometry" />
        </mxCell>
        <mxCell id="AH9gWRwFGIXPPmOfZCHg-9" value="" style="rounded=1;whiteSpace=wrap;html=1;gradientColor=#b3b3b3;fillColor=#f5f5f5;strokeColor=#666666;" vertex="1" parent="AH9gWRwFGIXPPmOfZCHg-3">
          <mxGeometry x="40" y="80" width="210" height="259" as="geometry" />
        </mxCell>
        <mxCell id="AH9gWRwFGIXPPmOfZCHg-10" value="&lt;i&gt;&lt;b&gt;&lt;font style=&quot;font-size: 16px&quot;&gt;Node 1&lt;br&gt;&lt;/font&gt;&lt;/b&gt;&lt;/i&gt;" style="text;html=1;align=center;verticalAlign=middle;resizable=0;points=[];autosize=1;" vertex="1" parent="AH9gWRwFGIXPPmOfZCHg-3">
          <mxGeometry x="47.5" y="85" width="80" height="20" as="geometry" />
        </mxCell>
        <mxCell id="AH9gWRwFGIXPPmOfZCHg-11" value="" style="group" vertex="1" connectable="0" parent="AH9gWRwFGIXPPmOfZCHg-3">
          <mxGeometry x="47.5" y="113" width="195" height="220" as="geometry" />
        </mxCell>
        <mxCell id="AH9gWRwFGIXPPmOfZCHg-12" value="" style="aspect=fixed;html=1;points=[];align=center;image;fontSize=12;image=img/lib/mscae/Docker.svg;" vertex="1" parent="AH9gWRwFGIXPPmOfZCHg-11">
          <mxGeometry x="75" y="179" width="50" height="41" as="geometry" />
        </mxCell>
        <mxCell id="AH9gWRwFGIXPPmOfZCHg-13" value="" style="group" vertex="1" connectable="0" parent="AH9gWRwFGIXPPmOfZCHg-11">
          <mxGeometry width="195" height="168" as="geometry" />
        </mxCell>
        <mxCell id="AH9gWRwFGIXPPmOfZCHg-14" value="" style="rounded=0;whiteSpace=wrap;html=1;fillColor=#dae8fc;strokeColor=#6c8ebf;" vertex="1" parent="AH9gWRwFGIXPPmOfZCHg-13">
          <mxGeometry x="115" width="80" height="78" as="geometry" />
        </mxCell>
        <mxCell id="AH9gWRwFGIXPPmOfZCHg-15" value="" style="html=1;dashed=0;whitespace=wrap;fillColor=#2875E2;strokeColor=#ffffff;points=[[0.005,0.63,0],[0.1,0.2,0],[0.9,0.2,0],[0.5,0,0],[0.995,0.63,0],[0.72,0.99,0],[0.5,1,0],[0.28,0.99,0]];shape=mxgraph.kubernetes.icon;prIcon=k_proxy" vertex="1" parent="AH9gWRwFGIXPPmOfZCHg-13">
          <mxGeometry x="130" y="26" width="50" height="48" as="geometry" />
        </mxCell>
        <mxCell id="AH9gWRwFGIXPPmOfZCHg-16" value="" style="group" vertex="1" connectable="0" parent="AH9gWRwFGIXPPmOfZCHg-13">
          <mxGeometry x="5" y="90" width="190" height="78" as="geometry" />
        </mxCell>
        <mxCell id="AH9gWRwFGIXPPmOfZCHg-17" value="" style="rounded=0;whiteSpace=wrap;html=1;fillColor=#f5f5f5;strokeColor=#666666;fontColor=#333333;" vertex="1" parent="AH9gWRwFGIXPPmOfZCHg-16">
          <mxGeometry width="190" height="78" as="geometry" />
        </mxCell>
        <mxCell id="AH9gWRwFGIXPPmOfZCHg-18" value="" style="html=1;dashed=0;whitespace=wrap;fillColor=#2875E2;strokeColor=#ffffff;points=[[0.005,0.63,0],[0.1,0.2,0],[0.9,0.2,0],[0.5,0,0],[0.995,0.63,0],[0.72,0.99,0],[0.5,1,0],[0.28,0.99,0]];shape=mxgraph.kubernetes.icon;prIcon=job" vertex="1" parent="AH9gWRwFGIXPPmOfZCHg-16">
          <mxGeometry x="10" y="23" width="50" height="48" as="geometry" />
        </mxCell>
        <mxCell id="AH9gWRwFGIXPPmOfZCHg-19" value="" style="html=1;dashed=0;whitespace=wrap;fillColor=#2875E2;strokeColor=#ffffff;points=[[0.005,0.63,0],[0.1,0.2,0],[0.9,0.2,0],[0.5,0,0],[0.995,0.63,0],[0.72,0.99,0],[0.5,1,0],[0.28,0.99,0]];shape=mxgraph.kubernetes.icon;prIcon=job" vertex="1" parent="AH9gWRwFGIXPPmOfZCHg-16">
          <mxGeometry x="70" y="23" width="50" height="48" as="geometry" />
        </mxCell>
        <mxCell id="AH9gWRwFGIXPPmOfZCHg-20" value="" style="html=1;dashed=0;whitespace=wrap;fillColor=#2875E2;strokeColor=#ffffff;points=[[0.005,0.63,0],[0.1,0.2,0],[0.9,0.2,0],[0.5,0,0],[0.995,0.63,0],[0.72,0.99,0],[0.5,1,0],[0.28,0.99,0]];shape=mxgraph.kubernetes.icon;prIcon=job" vertex="1" parent="AH9gWRwFGIXPPmOfZCHg-16">
          <mxGeometry x="130" y="23" width="50" height="48" as="geometry" />
        </mxCell>
        <mxCell id="AH9gWRwFGIXPPmOfZCHg-21" value="&lt;font style=&quot;font-size: 16px&quot;&gt;&lt;b&gt;Pods&lt;/b&gt;&lt;/font&gt;" style="text;html=1;align=center;verticalAlign=middle;resizable=0;points=[];autosize=1;" vertex="1" parent="AH9gWRwFGIXPPmOfZCHg-16">
          <mxGeometry x="65" y="4" width="60" height="20" as="geometry" />
        </mxCell>
        <mxCell id="AH9gWRwFGIXPPmOfZCHg-22" value="" style="rounded=0;whiteSpace=wrap;html=1;fillColor=#f8cecc;strokeColor=#b85450;" vertex="1" parent="AH9gWRwFGIXPPmOfZCHg-13">
          <mxGeometry x="5" width="80" height="78" as="geometry" />
        </mxCell>
        <mxCell id="AH9gWRwFGIXPPmOfZCHg-23" value="" style="html=1;dashed=0;whitespace=wrap;fillColor=#2875E2;strokeColor=#ffffff;points=[[0.005,0.63,0],[0.1,0.2,0],[0.9,0.2,0],[0.5,0,0],[0.995,0.63,0],[0.72,0.99,0],[0.5,1,0],[0.28,0.99,0]];shape=mxgraph.kubernetes.icon;prIcon=kubelet" vertex="1" parent="AH9gWRwFGIXPPmOfZCHg-13">
          <mxGeometry x="20" y="23" width="50" height="48" as="geometry" />
        </mxCell>
        <mxCell id="AH9gWRwFGIXPPmOfZCHg-24" value="&lt;font style=&quot;font-size: 16px&quot;&gt;&lt;b&gt;Kubelet&lt;/b&gt;&lt;/font&gt;" style="text;html=1;align=center;verticalAlign=middle;resizable=0;points=[];autosize=1;" vertex="1" parent="AH9gWRwFGIXPPmOfZCHg-13">
          <mxGeometry y="3" width="90" height="20" as="geometry" />
        </mxCell>
        <mxCell id="AH9gWRwFGIXPPmOfZCHg-25" value="&lt;font style=&quot;font-size: 16px&quot;&gt;&lt;b&gt;Proxy&lt;/b&gt;&lt;/font&gt;" style="text;html=1;align=center;verticalAlign=middle;resizable=0;points=[];autosize=1;" vertex="1" parent="AH9gWRwFGIXPPmOfZCHg-13">
          <mxGeometry x="120" y="3" width="70" height="20" as="geometry" />
        </mxCell>
        <mxCell id="AH9gWRwFGIXPPmOfZCHg-26" value="z" style="group" vertex="1" connectable="0" parent="AH9gWRwFGIXPPmOfZCHg-3">
          <mxGeometry x="40" y="373" width="230" height="148" as="geometry" />
        </mxCell>
        <mxCell id="AH9gWRwFGIXPPmOfZCHg-27" value="" style="rounded=0;whiteSpace=wrap;html=1;gradientColor=#ffd966;fillColor=#fff2cc;strokeColor=#d6b656;" vertex="1" parent="AH9gWRwFGIXPPmOfZCHg-26">
          <mxGeometry width="230" height="148" as="geometry" />
        </mxCell>
        <mxCell id="AH9gWRwFGIXPPmOfZCHg-28" value="" style="group" vertex="1" connectable="0" parent="AH9gWRwFGIXPPmOfZCHg-26">
          <mxGeometry x="151" y="47.36" width="50" height="67.09333333333333" as="geometry" />
        </mxCell>
        <mxCell id="AH9gWRwFGIXPPmOfZCHg-29" value="" style="html=1;dashed=0;whitespace=wrap;fillColor=#2875E2;strokeColor=#ffffff;points=[[0.005,0.63,0],[0.1,0.2,0],[0.9,0.2,0],[0.5,0,0],[0.995,0.63,0],[0.72,0.99,0],[0.5,1,0],[0.28,0.99,0]];shape=mxgraph.kubernetes.icon;prIcon=etcd" vertex="1" parent="AH9gWRwFGIXPPmOfZCHg-28">
          <mxGeometry x="6" y="-1" width="50" height="47.36" as="geometry" />
        </mxCell>
        <mxCell id="AH9gWRwFGIXPPmOfZCHg-30" value="&lt;font style=&quot;font-size: 16px&quot;&gt;&lt;b&gt;etcd&lt;/b&gt;&lt;/font&gt;" style="text;html=1;align=center;verticalAlign=middle;resizable=0;points=[];autosize=1;" vertex="1" parent="AH9gWRwFGIXPPmOfZCHg-28">
          <mxGeometry y="47.36" width="50" height="20" as="geometry" />
        </mxCell>
        <mxCell id="AH9gWRwFGIXPPmOfZCHg-31" value="" style="group" vertex="1" connectable="0" parent="AH9gWRwFGIXPPmOfZCHg-26">
          <mxGeometry x="10" y="29.6" width="120" height="102.61333333333333" as="geometry" />
        </mxCell>
        <mxCell id="AH9gWRwFGIXPPmOfZCHg-32" value="&lt;font style=&quot;font-size: 16px&quot;&gt;&lt;b&gt;API Server&lt;br&gt;&lt;/b&gt;&lt;/font&gt;" style="rounded=1;whiteSpace=wrap;html=1;fillColor=#f9f7ed;strokeColor=#36393d;" vertex="1" parent="AH9gWRwFGIXPPmOfZCHg-31">
          <mxGeometry y="-6" width="120" height="29.599999999999998" as="geometry" />
        </mxCell>
        <mxCell id="AH9gWRwFGIXPPmOfZCHg-33" value="&lt;font style=&quot;font-size: 16px&quot;&gt;&lt;b&gt;Scheduler&lt;/b&gt;&lt;/font&gt;" style="rounded=1;whiteSpace=wrap;html=1;fillColor=#eeeeee;strokeColor=#36393d;" vertex="1" parent="AH9gWRwFGIXPPmOfZCHg-31">
          <mxGeometry y="30.50666666666666" width="120" height="29.599999999999998" as="geometry" />
        </mxCell>
        <mxCell id="AH9gWRwFGIXPPmOfZCHg-34" value="&lt;font style=&quot;font-size: 16px&quot;&gt;&lt;b&gt;Controller&lt;/b&gt;&lt;/font&gt;" style="rounded=1;whiteSpace=wrap;html=1;fillColor=#cce5ff;strokeColor=#36393d;" vertex="1" parent="AH9gWRwFGIXPPmOfZCHg-31">
          <mxGeometry y="67.01333333333332" width="120" height="29.599999999999998" as="geometry" />
        </mxCell>
        <mxCell id="AH9gWRwFGIXPPmOfZCHg-35" value="&lt;i&gt;&lt;b&gt;&lt;font style=&quot;font-size: 16px&quot;&gt;Master Node&lt;br&gt;&lt;/font&gt;&lt;/b&gt;&lt;/i&gt;" style="text;html=1;align=center;verticalAlign=middle;resizable=0;points=[];autosize=1;" vertex="1" parent="AH9gWRwFGIXPPmOfZCHg-26">
          <mxGeometry x="24" width="130" height="20" as="geometry" />
        </mxCell>
        <mxCell id="AH9gWRwFGIXPPmOfZCHg-36" style="edgeStyle=orthogonalEdgeStyle;rounded=0;orthogonalLoop=1;jettySize=auto;html=1;entryX=0.548;entryY=1.004;entryDx=0;entryDy=0;entryPerimeter=0;strokeWidth=2;" edge="1" parent="AH9gWRwFGIXPPmOfZCHg-3" source="AH9gWRwFGIXPPmOfZCHg-27" target="AH9gWRwFGIXPPmOfZCHg-9">
          <mxGeometry relative="1" as="geometry" />
        </mxCell>
        <mxCell id="AH9gWRwFGIXPPmOfZCHg-37" value="" style="group" vertex="1" connectable="0" parent="AH9gWRwFGIXPPmOfZCHg-3">
          <mxGeometry x="30" y="-8" width="150" height="30" as="geometry" />
        </mxCell>
        <mxCell id="AH9gWRwFGIXPPmOfZCHg-38" value="&lt;font style=&quot;font-size: 16px&quot;&gt;&lt;i&gt;&lt;b&gt;Edge Compute&lt;br&gt;&lt;/b&gt;&lt;/i&gt;&lt;/font&gt;" style="rounded=0;whiteSpace=wrap;html=1;labelBackgroundColor=none;fillColor=#f5f5f5;strokeColor=#666666;fontColor=#333333;" vertex="1" parent="AH9gWRwFGIXPPmOfZCHg-37">
          <mxGeometry y="8" width="150" height="30" as="geometry" />
        </mxCell>
        <mxCell id="AH9gWRwFGIXPPmOfZCHg-87" value="" style="endArrow=none;dashed=1;html=1;strokeWidth=3;entryX=1;entryY=1;entryDx=0;entryDy=0;strokeColor=#B5739D;exitX=0.005;exitY=0.63;exitDx=0;exitDy=0;exitPerimeter=0;" edge="1" parent="1" source="AH9gWRwFGIXPPmOfZCHg-18" target="AH9gWRwFGIXPPmOfZCHg-44">
          <mxGeometry width="50" height="50" relative="1" as="geometry">
            <mxPoint x="640" y="518" as="sourcePoint" />
            <mxPoint x="-150" y="638" as="targetPoint" />
          </mxGeometry>
        </mxCell>
        <mxCell id="AH9gWRwFGIXPPmOfZCHg-88" value="" style="endArrow=none;dashed=1;html=1;strokeWidth=3;entryX=1;entryY=0;entryDx=0;entryDy=0;strokeColor=#B5739D;exitX=0.5;exitY=0;exitDx=0;exitDy=0;exitPerimeter=0;" edge="1" parent="1" source="AH9gWRwFGIXPPmOfZCHg-18" target="AH9gWRwFGIXPPmOfZCHg-44">
          <mxGeometry width="50" height="50" relative="1" as="geometry">
            <mxPoint x="750" y="398" as="sourcePoint" />
            <mxPoint x="-150" y="638" as="targetPoint" />
          </mxGeometry>
        </mxCell>
        <mxCell id="AH9gWRwFGIXPPmOfZCHg-103" style="edgeStyle=orthogonalEdgeStyle;rounded=0;orthogonalLoop=1;jettySize=auto;html=1;entryX=0;entryY=0.5;entryDx=0;entryDy=0;strokeWidth=2;" edge="1" parent="1" source="AH9gWRwFGIXPPmOfZCHg-93" target="AH9gWRwFGIXPPmOfZCHg-27">
          <mxGeometry relative="1" as="geometry" />
        </mxCell>
      </root>
    </mxGraphModel>
  </diagram>
</mxfile>
